<?xml version="1.0" encoding="UTF-8" standalone="no"?>
<!-- Created with Inkscape (http://www.inkscape.org/) -->

<svg
   xmlns:dc="http://purl.org/dc/elements/1.1/"
   xmlns:cc="http://creativecommons.org/ns#"
   xmlns:rdf="http://www.w3.org/1999/02/22-rdf-syntax-ns#"
   xmlns:svg="http://www.w3.org/2000/svg"
   xmlns="http://www.w3.org/2000/svg"
   xmlns:sodipodi="http://sodipodi.sourceforge.net/DTD/sodipodi-0.dtd"
   xmlns:inkscape="http://www.inkscape.org/namespaces/inkscape"
   width="456.56195"
   height="456.56195"
   id="svg2"
   version="1.1"
   inkscape:version="0.48.5 r10040"
   sodipodi:docname="aim.svg">
  <defs
     id="defs4" />
  <sodipodi:namedview
     id="base"
     pagecolor="#ffffff"
     bordercolor="#666666"
     borderopacity="1.0"
     inkscape:pageopacity="0.0"
     inkscape:pageshadow="2"
     inkscape:zoom="0.49497475"
     inkscape:cx="322.61009"
     inkscape:cy="334.12325"
     inkscape:document-units="px"
     inkscape:current-layer="layer1"
     showgrid="false"
     inkscape:window-width="1364"
     inkscape:window-height="766"
     inkscape:window-x="1"
     inkscape:window-y="1"
     inkscape:window-maximized="0"
     fit-margin-top="0"
     fit-margin-left="0"
     fit-margin-right="0"
     fit-margin-bottom="0" />
  <metadata
     id="metadata7">
    <rdf:RDF>
      <cc:Work
         rdf:about="">
        <dc:format>image/svg+xml</dc:format>
        <dc:type
           rdf:resource="http://purl.org/dc/dcmitype/StillImage" />
        <dc:title></dc:title>
      </cc:Work>
    </rdf:RDF>
  </metadata>
  <g
     inkscape:label="Layer 1"
     inkscape:groupmode="layer"
     id="layer1"
     transform="translate(-142.9534,-40.703399)">
    <path
       style="fill:#ff0000;fill-opacity:1;stroke:#ffffff;stroke-width:1px;stroke-linecap:butt;stroke-linejoin:miter;stroke-opacity:0"
       d="m 358.5625,317.375 0.96875,107.34375 -24.46875,0.5 41.34375,33.71875 31.5625,-35.25 -20.59375,0.4375 -0.625,-106.75 -28.1875,0 z"
       id="south"
       inkscape:connector-curvature="0" />
    <path
       style="fill:#e3dbdb;fill-rule:evenodd;stroke:#ffffff;stroke-width:1.65570176px;stroke-linecap:butt;stroke-linejoin:miter;stroke-opacity:0"
       d="m 371.21875,41.53125 c -125.62355,0 -227.4375,101.8452 -227.4375,227.46875 0,125.62355 101.81395,227.4375 227.4375,227.4375 C 496.8423,496.4375 598.6875,394.62355 598.6875,269 598.6875,143.37645 496.8423,41.53125 371.21875,41.53125 z m 0,27.15625 c 1.69805,0 3.40588,0.02027 5.09375,0.0625 0.0207,5.18e-4 0.0418,-5.25e-4 0.0625,0 0.14695,0.0037 0.29063,0.02721 0.4375,0.03125 3.26995,0.08996 6.52127,0.254292 9.75,0.5 1.60228,0.121934 3.18979,0.246634 4.78125,0.40625 0.0835,0.0084 0.16651,0.02277 0.25,0.03125 1.6864,0.171292 3.35756,0.38066 5.03125,0.59375 1.52559,0.194234 3.04789,0.396461 4.5625,0.625 0.0931,0.01402 0.18822,0.0171 0.28125,0.03125 0.2101,0.03201 0.41511,0.09234 0.625,0.125 1.47259,0.229174 2.94452,0.457506 4.40625,0.71875 1.64654,0.294276 3.27399,0.603034 4.90625,0.9375 1.61579,0.331092 3.24248,0.692544 4.84375,1.0625 1.39604,0.32254 2.77161,0.648287 4.15625,1 0.0736,0.01869 0.14513,0.04372 0.21875,0.0625 1.49966,0.382761 3.01417,0.770929 4.5,1.1875 0.13628,0.0382 0.27009,0.08652 0.40625,0.125 1.42078,0.401631 2.84231,0.817827 4.25,1.25 0.0722,0.02215 0.14659,0.04027 0.21875,0.0625 1.46929,0.452942 2.92044,0.920449 4.375,1.40625 1.53259,0.511557 3.04674,1.046221 4.5625,1.59375 1.19238,0.430714 2.38082,0.891056 3.5625,1.34375 0.31086,0.119145 0.62739,0.223094 0.9375,0.34375 0.15618,0.06073 0.31276,0.126386 0.46875,0.1875 1.33338,0.52272 2.64956,1.043296 3.96875,1.59375 1.24538,0.519278 2.48631,1.050074 3.71875,1.59375 0.22956,0.101329 0.4584,0.21033 0.6875,0.3125 0.15719,0.07006 0.31178,0.148298 0.46875,0.21875 1.29735,0.582628 2.59256,1.171848 3.875,1.78125 0.0633,0.03005 0.12426,0.06363 0.1875,0.09375 1.37394,0.654666 2.73739,1.315012 4.09375,2 0.0621,0.03135 0.12542,0.06233 0.1875,0.09375 1.35537,0.686288 2.69391,1.377606 4.03125,2.09375 0.21832,0.116829 0.43842,0.226133 0.65625,0.34375 1.17982,0.63743 2.36591,1.308359 3.53125,1.96875 0.88154,0.499358 1.75189,1.01891 2.625,1.53125 0.88067,0.517065 1.75305,1.032357 2.625,1.5625 0.31107,0.189012 0.62755,0.371836 0.9375,0.5625 0.65006,0.400138 1.29241,0.811383 1.9375,1.21875 1.0675,0.67365 2.13381,1.33802 3.1875,2.03125 0.26966,0.17751 0.54375,0.35247 0.8125,0.53125 0.13753,0.0914 0.26896,0.18947 0.40625,0.28125 1.17605,0.78657 2.34181,1.59549 3.5,2.40625 0.0426,0.0298 0.0824,0.0639 0.125,0.0937 1.24947,0.87612 2.49054,1.7524 3.71875,2.65625 0.0957,0.0704 0.18569,0.1482 0.28125,0.21875 1.17295,0.86641 2.34693,1.73367 3.5,2.625 0.18216,0.14076 0.34959,0.29612 0.53125,0.4375 1.06203,0.82682 2.11156,1.6523 3.15625,2.5 0.12543,0.10171 0.24982,0.21049 0.375,0.3125 1.09529,0.89318 2.20549,1.80292 3.28125,2.71875 0.99153,0.84379 1.96285,1.69978 2.9375,2.5625 0.20488,0.18142 0.42087,0.349 0.625,0.53125 0.23117,0.20632 0.4573,0.41762 0.6875,0.625 0.93869,0.84596 1.85885,1.69907 2.78125,2.5625 0.043,0.0403 0.082,0.0847 0.125,0.125 1.10586,1.03653 2.19928,2.095 3.28125,3.15625 1.03038,1.01064 2.05418,2.02984 3.0625,3.0625 0.0925,0.0947 0.18898,0.18634 0.28125,0.28125 0.34465,0.35438 0.68922,0.70558 1.03125,1.0625 0.74629,0.77907 1.48506,1.55267 2.21875,2.34375 0.24988,0.26929 0.50159,0.54183 0.75,0.8125 0.81433,0.88783 1.60792,1.78497 2.40625,2.6875 0.0639,0.0723 0.12365,0.1464 0.1875,0.21875 0.98362,1.1146 1.94738,2.23844 2.90625,3.375 0.94026,1.11451 1.8652,2.23978 2.78125,3.375 0.0698,0.0865 0.14909,0.16334 0.21875,0.25 0.0562,0.0698 0.10018,0.14884 0.15625,0.21875 0.92835,1.15756 1.84717,2.32148 2.75,3.5 0.96193,1.25567 1.91128,2.53353 2.84375,3.8125 0.8696,1.19273 1.7502,2.38118 2.59375,3.59375 0.0561,0.0807 0.10027,0.16923 0.15625,0.25 0.0858,0.12372 0.16448,0.25108 0.25,0.375 0.81135,1.17617 1.61971,2.36822 2.40625,3.5625 0.86999,1.32061 1.72333,2.65772 2.5625,4 0.83823,1.34111 1.66178,2.66901 2.46875,4.03125 0.44441,0.7499 0.87768,1.49381 1.3125,2.25 0.35752,0.6219 0.71152,1.2489 1.0625,1.875 0.0522,0.0931 0.10421,0.1881 0.15625,0.28125 2.26642,4.05691 4.3903,8.21214 6.375,12.4375 0.67704,1.4414 1.32548,2.88373 1.96875,4.34375 0.64335,1.46019 1.26593,2.92795 1.875,4.40625 0.60969,1.47981 1.20642,2.97129 1.78125,4.46875 1.72199,4.48585 3.28732,9.05229 4.6875,13.6875 0.46589,1.54229 0.91449,3.09842 1.34375,4.65625 0.4319,1.56742 0.85568,3.13611 1.25,4.71875 0.78556,3.15293 1.49164,6.32092 2.125,9.53125 0.95193,4.82502 1.71572,9.71293 2.3125,14.65625 0.19797,1.63984 0.37336,3.28564 0.53125,4.9375 0.31638,3.31 0.56631,6.64474 0.71875,10 0.0763,1.6799 0.12178,3.37201 0.15625,5.0625 0.0433,1.70924 0.0625,3.43657 0.0625,5.15625 -0.007,1.37415 -0.0279,2.75756 -0.0625,4.125 -2.1922,108.15845 -90.53531,195.15625 -199.21875,195.15625 -110.05923,0 -199.28125,-89.22202 -199.28125,-199.28125 0,-0.20841 -6.4e-4,-0.41674 0,-0.625 -2.7e-4,-0.13538 0,-0.27081 0,-0.40625 0,-0.68154 0.0244,-1.35132 0.0312,-2.03125 0.007,-0.46879 0.0205,-0.93714 0.0312,-1.40625 0.008,-0.45955 0.0203,-0.91621 0.0312,-1.375 0.002,-0.10413 -0.003,-0.20833 0,-0.3125 0.0346,-1.36539 0.0943,-2.73532 0.15625,-4.09375 0.0754,-1.65442 0.16572,-3.29384 0.28125,-4.9375 0.2305,-3.27947 0.55021,-6.54747 0.9375,-9.78125 0.18281,-1.52638 0.37664,-3.04693 0.59375,-4.5625 0.018,-0.1253 0.0443,-0.24978 0.0625,-0.375 0.46173,-3.1799 0.9837,-6.33936 1.59375,-9.46875 0.3084,-1.58201 0.65441,-3.15036 1,-4.71875 0.69387,-3.14894 1.44036,-6.25264 2.28125,-9.34375 0.41812,-1.53703 0.85875,-3.07174 1.3125,-4.59375 0.45191,-1.51584 0.91947,-3.03078 1.40625,-4.53125 0.981,-3.02386 2.03652,-6.0102 3.15625,-8.96875 0.52241,-1.38032 1.073,-2.75951 1.625,-4.125 0.13512,-0.33448 0.26937,-0.66642 0.40625,-1 0.36901,-0.8987 0.74329,-1.79544 1.125,-2.6875 0.29451,-0.68862 0.57299,-1.3779 0.875,-2.0625 0.46822,-1.06087 0.95141,-2.10519 1.4375,-3.15625 0.66038,-1.42792 1.3383,-2.8406 2.03125,-4.25 0.65699,-1.33627 1.31416,-2.6808 2,-4 0.14628,-0.28149 0.28992,-0.56305 0.4375,-0.84375 0.6131,-1.16559 1.23962,-2.31693 1.875,-3.46875 0.75224,-1.36367 1.52947,-2.71858 2.3125,-4.0625 0.61351,-1.05336 1.24285,-2.11527 1.875,-3.15625 0.0825,-0.13573 0.16721,-0.27073 0.25,-0.40625 0.21667,-0.35489 0.43743,-0.70908 0.65625,-1.0625 0.69494,-1.12174 1.40856,-2.23698 2.125,-3.34375 0.71015,-1.09758 1.42525,-2.19866 2.15625,-3.28125 0.13942,-0.20637 0.26608,-0.41918 0.40625,-0.625 0.76026,-1.11694 1.53029,-2.21198 2.3125,-3.3125 0.11732,-0.16497 0.22594,-0.3354 0.34375,-0.5 0.29389,-0.41083 0.60932,-0.81025 0.90625,-1.21875 0.61777,-0.84942 1.24421,-1.69204 1.875,-2.53125 0.86918,-1.15711 1.73141,-2.30013 2.625,-3.4375 0.0644,-0.082 0.12292,-0.16809 0.1875,-0.25 0.91885,-1.16577 1.86838,-2.32422 2.8125,-3.46875 0.0426,-0.0516 0.0824,-0.10469 0.125,-0.15625 0.13728,-0.16608 0.26844,-0.33437 0.40625,-0.5 1.76105,-2.11562 3.56057,-4.17856 5.40625,-6.21875 0.10338,-0.11435 0.20886,-0.22964 0.3125,-0.34375 1.03252,-1.13602 2.06683,-2.26316 3.125,-3.375 0.0407,-0.0428 0.0843,-0.0823 0.125,-0.125 1.02374,-1.07377 2.07773,-2.13677 3.125,-3.1875 1.08888,-1.09248 2.19865,-2.18289 3.3125,-3.25 0.11706,-0.11218 0.22642,-0.23185 0.34375,-0.34375 0.39506,-0.37665 0.78936,-0.75157 1.1875,-1.125 0.76407,-0.71687 1.5372,-1.42012 2.3125,-2.125 0.99393,-0.90337 1.98789,-1.8041 3,-2.6875 0.0281,-0.0245 0.0657,-0.038 0.0937,-0.0625 0.42936,-0.37434 0.84866,-0.75429 1.28125,-1.125 0.93624,-0.80261 1.89257,-1.58959 2.84375,-2.375 0.97372,-0.80358 1.94839,-1.62094 2.9375,-2.40625 0.0929,-0.0738 0.18821,-0.14511 0.28125,-0.21875 1.00024,-0.79126 2.0156,-1.57141 3.03125,-2.34375 0.17269,-0.13139 0.35811,-0.24416 0.53125,-0.375 0.67173,-0.50738 1.35293,-1.00097 2.03125,-1.5 0.8486,-0.62452 1.67246,-1.26369 2.53125,-1.875 0.0729,-0.0519 0.1458,-0.10449 0.21875,-0.15625 1.0497,-0.74508 2.12288,-1.46238 3.1875,-2.1875 0.64589,-0.43983 1.28621,-0.88009 1.9375,-1.3125 0.71968,-0.47792 1.43004,-0.96872 2.15625,-1.4375 0.36935,-0.23835 0.75397,-0.451536 1.125,-0.6875 1.14931,-0.731162 2.3036,-1.448161 3.46875,-2.15625 0.84281,-0.512102 1.6803,-1.03136 2.53125,-1.53125 0.24876,-0.146155 0.50055,-0.292395 0.75,-0.4375 0.56022,-0.325823 1.12383,-0.648249 1.6875,-0.96875 1.11693,-0.635219 2.24472,-1.26089 3.375,-1.875 2.16453,-1.175843 4.35047,-2.30922 6.5625,-3.40625 0.36303,-0.180084 0.72947,-0.353319 1.09375,-0.53125 0.40528,-0.19792 0.81193,-0.398505 1.21875,-0.59375 1.35346,-0.64966 2.72355,-1.286484 4.09375,-1.90625 1.14756,-0.519061 2.30972,-1.033428 3.46875,-1.53125 0.60445,-0.259491 1.20499,-0.527584 1.8125,-0.78125 1.21509,-0.507618 2.42909,-0.984657 3.65625,-1.46875 0.63229,-0.249324 1.27082,-0.506975 1.90625,-0.75 0.60288,-0.230595 1.20683,-0.462611 1.8125,-0.6875 0.42557,-0.158017 0.85431,-0.313563 1.28125,-0.46875 1.08835,-0.395582 2.18415,-0.779196 3.28125,-1.15625 0.51143,-0.175757 1.01795,-0.359548 1.53125,-0.53125 1.32722,-0.444014 2.66049,-0.864584 4,-1.28125 1.44259,-0.448728 2.8873,-0.895888 4.34375,-1.3125 0.21565,-0.0617 0.4403,-0.09526 0.65625,-0.15625 1.3707,-0.387033 2.74247,-0.766742 4.125,-1.125 0.14705,-0.03812 0.29032,-0.08721 0.4375,-0.125 3.0095,-0.772456 6.06226,-1.460146 9.125,-2.09375 0.26948,-0.05573 0.54263,-0.101605 0.8125,-0.15625 1.496,-0.302964 2.99203,-0.605764 4.5,-0.875 4.89972,-0.87481 9.85808,-1.584195 14.875,-2.09375 0.18648,-0.01894 0.37587,-0.04408 0.5625,-0.0625 1.27606,-0.125955 2.56072,-0.210739 3.84375,-0.3125 0.21863,-0.01736 0.43743,-0.04585 0.65625,-0.0625 1.6814,-0.127791 3.36968,-0.226706 5.0625,-0.3125 1.38162,-0.07002 2.76733,-0.145766 4.15625,-0.1875 0.32343,-0.0097 0.64493,-0.02308 0.96875,-0.03125 1.70924,-0.0433 3.40532,-0.0625 5.125,-0.0625 z"
       id="path3004"
       inkscape:connector-curvature="0" />
    <path
       style="fill:#ff0000;stroke:#ffffff;stroke-width:1px;stroke-linecap:butt;stroke-linejoin:miter;stroke-opacity:0"
       d="m 268.1875,66.15625 c -38.85952,19.782911 -72.80331,50.90216 -94.79648,88.38008 L 154.03633,143.73398 168.6875,194.75 217.17814,180.6039 198.1461,169.42656 c 19.20993,-32.79418 48.52739,-61.62914 82.4789,-78.98906 z"
       id="left"
       inkscape:connector-curvature="0"
       sodipodi:nodetypes="cccccccc" />
    <path
       sodipodi:nodetypes="cccccccc"
       inkscape:connector-curvature="0"
       id="right"
       d="m 482.76696,70.787591 c 37.99515,21.396125 70.6032,53.912329 91.00434,92.280119 l 19.79093,-9.98066 -16.77902,50.35628 -47.85432,-16.16842 19.4843,-10.36886 C 530.59631,143.33466 502.51465,113.29486 469.32151,94.525547 z"
       style="fill:#ff0000;stroke:#ffffff;stroke-width:1px;stroke-linecap:butt;stroke-linejoin:miter;stroke-opacity:0" />
    <path
       style="fill:#ff0000;fill-opacity:1;stroke:#ffffff;stroke-width:1px;stroke-linecap:butt;stroke-linejoin:miter;stroke-opacity:0"
       d="m 376.40625,78.0625 -41.34375,33.71875 24.46875,0.5 -0.9375,107.94643 28.1875,0 0.59375,-107.35268 20.59375,0.4375 z"
       id="north"
       inkscape:connector-curvature="0"
       sodipodi:nodetypes="cccccccc" />
    <path
       style="fill:#ff0000;fill-opacity:1;stroke:#ffffff;stroke-width:1px;stroke-linecap:butt;stroke-linejoin:miter;stroke-opacity:0"
       d="m 214.78125,232.03125 -33.71875,41.34375 35.25,31.5625 -0.4375,-20.59375 105.5625,-0.59375 0,-28.21875 -106.15625,0.96875 -0.5,-24.46875 z"
       id="west"
       inkscape:connector-curvature="0" />
    <path
       style="fill:#ff0000;fill-opacity:1;stroke:#ffffff;stroke-width:1px;stroke-linecap:butt;stroke-linejoin:miter;stroke-opacity:0"
       d="m 528.21875,232.03125 -0.5,24.46875 -105.5625,-0.96875 0,28.21875 104.96875,0.59375 -0.4375,20.59375 35.25,-31.5625 -33.71875,-41.34375 z"
       id="east"
       inkscape:connector-curvature="0" />
    <path
       sodipodi:type="arc"
       style="fill:#ff0000;fill-opacity:1;stroke:#ffffff;stroke-opacity:0"
       id="path3145"
       sodipodi:cx="372.85715"
       sodipodi:cy="264.50504"
       sodipodi:rx="37.142857"
       sodipodi:ry="37.142857"
       d="m 410,264.50504 c 0,20.51343 -16.62942,37.14285 -37.14285,37.14285 -20.51344,0 -37.14286,-16.62942 -37.14286,-37.14285 0,-20.51344 16.62942,-37.14286 37.14286,-37.14286 20.51343,0 37.14285,16.62942 37.14285,37.14286 z"
       transform="translate(3.0078932e-8,4.2857143)" />
  </g>
</svg>
